<?xml version="1.0" encoding="UTF-8" standalone="no"?>
<svg xmlns:xlink="http://www.w3.org/1999/xlink" xmlns="http://www.w3.org/2000/svg"
 version="1.1" width="522" height="190" id="svg2"><g id="p0thfill" style="fill-opacity:1;fill:#FFFFFF" >  <path d="M8 65c0 -18.2158 14.7842 -33 33 -33c8.76465 0 15.585 3.3584 20.5107 8.5l2.98926 2.99316v19.0068h-24.5v-9h-2v21h2v-10h24.5v22.2168l-2.94141 2.75879c-5.16992 5.15918 -11.6367 8.52441 -20.5586 8.52441c-18.2158 0 -33 -14.7842 -33 -33z " id="p0th-00C10" transform="translate(25,25)" />  <path d="M12.5 97.5v-65h24v65h-24z " id="p0th-00I11" transform="translate(99,25)" />  <path d="M12.5 97.5v-65h24.5869l21.6465 35.9385l1.47949 -1.41895l-12.0127 -19.9453v-7.57422c0 -13.7998 9.18359 -25 20.5 -25c6.29199 0 13.502 3.00586 15.9854 8.28027l0.217773 0.461914l-0.46582 0.208008c-6.63965 2.96777 -9.9375 11.2617 -9.9375 18.3496v55.7002 h-21.5898l-24.1143 -39.8838l-1.64551 1.14355l17.9512 29.6904l-0.00195312 0.141602c-0.0498047 4.92578 -4.0625 8.9082 -9 8.9082h-23.5996z " id="p0th-00N12" transform="translate(148,25)" />  <path d="M10.5 69.5v-37h53v21h-28.5v2h12.5c1.93262 0 3.5 1.56738 3.5 3.5v15.5h-14v2h26.5v21h-25c-15.4561 0 -28 -12.5439 -28 -28z " id="p0th-00E13" transform="translate(235,25)" />  <path d="M12.5 97.5v-65h24.4873l17.0127 28.2461l17.0127 -28.2461h24.4873v55.7002c0 7.03125 3.18652 15.332 9.93848 18.3496l0.46582 0.208008l-0.21875 0.461914c-2.43457 5.16797 -9.63379 8.27441 -16.0146 8.27441c-11.6924 0 -21.7637 -12.6816 -21.7705 -28.9766 v-0.140625l12.7432 -21.0293l-1.66309 -1.1875l-23.1904 38.3398h-2.98047l-22.9141 -37.8848l-1.64551 1.14453l13.751 22.7344l-0.00195312 0.143555c-0.0742188 4.90527 -4.07715 8.8623 -8.99902 8.8623h-20.5z " id="p0th-00M14" transform="translate(309,25)" />  <path d="M5.97852 97.5l24.3252 -64.998h19.3867l24.6758 65.9785l-0.49707 0.161133c-6.90039 2.24219 -12.7617 3.85059 -18.543 3.85059c-7.22559 0 -13.8262 -5.04102 -13.8262 -11.9922v-18h10v-2h-23.5996v2h11.5996v14c0 6.08789 -5.12305 11 -11.4004 11h-22.1211z " id="p0th-00A15" transform="translate(417,25)" /> </g><g id="p1thfill" style="fill-opacity:1;fill:#000000" >  <path d="M5.5 65c0 -19.5957 15.9043 -35.5 35.5 -35.5c6.59863 0 12.2598 1.77832 16.916 4.79102c2.38477 1.54199 6.38379 3.80859 9.08398 4.80859v51.8008c-2.7002 1 -6.69922 3.2666 -9.08398 4.80859c-4.65625 3.0127 -10.3174 4.79102 -16.916 4.79102 c-19.5957 0 -35.5 -15.9043 -35.5 -35.5zM8.5 65c0 17.9395 14.5605 32.5 32.5 32.5c8.78809 0 15.1035 -3.28809 20.2109 -8.38379l2.78906 -2.61621v-21.5h-23.5v10h-3v-22h3v9h23.5v-18.2998l-2.84668 -2.85059c-4.84668 -5.05859 -11.5205 -8.34961 -20.1533 -8.34961 c-17.9395 0 -32.5 14.5605 -32.5 32.5z " id="p1th-00C10" transform="translate(25,25)" />  <path d="M13 97h23v-64h-23v64zM10 92v-54c0 -2.7334 -0.213867 -5.58789 -1.5 -8h32c-1.27441 2.54883 -1.5 5.15039 -1.5 8v54c0 2.7334 0.213867 5.58789 1.5 8h-32c1.27441 -2.54883 1.5 -5.14941 1.5 -8z " id="p1th-00I11" transform="translate(99,25)" />  <path d="M13 97h23.0996c4.66309 0 8.45312 -3.76074 8.5 -8.41309l-18.1201 -29.9697l2.46777 -1.71582l24.2451 40.0986h20.8076v-55.2002c0 -7.2041 3.3291 -15.7197 10.2334 -18.8066c-2.35938 -5.00977 -9.36133 -7.99316 -15.5332 -7.99316c-10.9561 0 -20 10.8916 -20 24.5 v7.43555l12.1475 20.168l-2.21973 2.12891l-21.8232 -36.2324h-23.8047v64zM10 92v-54c0 -2.7334 -0.213867 -5.58789 -1.5 -8h30l7.2002 11.9541v-2.4541c0 -15.1797 10.3037 -27.5 23 -27.5c5.89941 0 12.8916 2.34766 16.6611 7.12207 c1.36133 1.72461 3.66211 4.45801 5.41406 5.52734c0 0 -3.02637 0.360352 -3.99219 0.619141c-6.16797 1.65234 -9.7832 9.53125 -9.7832 16.5312v50.2002c0 2.7334 0.213867 5.58789 1.5 8h-27l-4.58496 -7.58301c-1.60352 4.4209 -5.8418 7.58301 -10.8154 7.58301 h-27.5996c1.27441 -2.54785 1.5 -5.14746 1.5 -8z " id="p1th-00N12" transform="translate(148,25)" />  <path d="M11 69.5c0 15.1797 12.3203 27.5 27.5 27.5h24.5v-20h-7h-19.5v-3h14v-15c0 -1.65625 -1.34375 -3 -3 -3h-13v-3h21.5h7v-20h-52v36.5zM8 69.5v-31.5c0 -2.7334 -0.213867 -5.58789 -1.5 -8h59.5v29.4004c-2.90039 -2.60059 -6 -3.40039 -10 -3.40039h-2.5v18h2.5 c4 0 7.09961 -0.799805 10 -3.40039v29.4004h-27.5c-16.8359 0 -30.5 -13.6641 -30.5 -30.5z " id="p1th-00E13" transform="translate(235,25)" />  <path d="M10 92v-54c0 -2.7334 -0.213867 -5.58789 -1.5 -8h29.9004l15.5996 25.9014l15.5996 -25.9014h29.9004c-1.28613 2.41211 -1.5 5.2666 -1.5 8v50.2002c0 7 3.61523 14.8789 9.7832 16.5312c0.96582 0.258789 3.99219 0.619141 3.99219 0.619141 c-1.75098 1.06934 -4.05371 3.80273 -5.41406 5.52734c-3.76953 4.77441 -10.8154 7.11621 -16.6904 7.11621c-12.4268 0 -22.3164 -11.918 -24.0156 -26.9473l-8.45508 13.9531h-5.7998l-7.59473 -12.5566c-1.61133 4.40723 -5.84277 7.55664 -10.8057 7.55664h-24.5 c1.27441 -2.54785 1.5 -5.14746 1.5 -8zM13 97h20c4.64844 0 8.42969 -3.7373 8.49902 -8.36914l-13.9189 -23.0137l2.46777 -1.71582l23.0439 38.0986h2.41602l23.3242 -38.5605l2.47852 1.77051l-12.9102 21.3066c0.00683594 16.1338 9.96973 28.4775 21.2705 28.4775 c6.25781 0 13.252 -3.08301 15.5635 -7.9873c-7.0166 -3.13672 -10.2344 -11.6621 -10.2344 -18.8066v-55.2002h-23.7051l-17.2949 28.7158l-17.2949 -28.7158h-23.7051v64z " id="p1th-00M14" transform="translate(309,25)" />  <path d="M2.40039 100l23.0996 -61.7998c0.40625 -1.12891 0.753906 -2.38672 0.753906 -3.66309c0 -1.55078 -0.512695 -3.12988 -2.05469 -4.53711h31.6016c-1.54492 1.41016 -2.05957 3.00098 -2.05957 4.5498c0 1.26953 0.345703 2.51074 0.75293 3.60059l23.1055 61.8496 c-7.74316 2.72266 -15.4512 4.99219 -22.2734 4.99219c-7.28906 0 -13.9141 -4.88281 -15.5439 -11.3975c-2.3916 3.84375 -6.68848 6.40527 -11.6826 6.40527h-25.6992zM6.69922 97h21.4004c6.01758 0 10.9004 -4.7041 10.9004 -10.5v-13.5h-11.5996v-3h24.5996v3h-10v17.5 c0 6.59961 6.30078 11.4922 13.3262 11.4922c5.6875 0 11.498 -1.58691 18.3887 -3.82617l-24.3721 -65.1641h-18.6924z " id="p1th-00A15" transform="translate(417,25)" /> </g><g id="p2thfill" style="fill-opacity:1;fill:#FFFFFF" >  <path d="M23.0498 85.5c0 -2.20801 1.79199 -4 4 -4s4 1.79199 4 4s-1.79199 4 -4 4s-4 -1.79199 -4 -4zM53.3496 77.8994c4.77539 0 8.65039 3.46777 8.65039 7.73926l-2.15234 2.07812c-4.84766 4.84766 -10.6094 7.7832 -18.8477 7.7832 c-3.37207 0 -7.86816 -1.31543 -10.5996 -3.25l0.0664062 -0.201172c5.96875 -0.0703125 9.36816 -3.83984 12.4912 -7.54785c2.8418 -3.37207 5.75488 -6.60156 10.3916 -6.60156z " id="p2th-00C10" transform="translate(25,25)" />  <path d="M26 69.7998c0 -2.2002 1.7998 -4 4 -4s4 1.7998 4 4s-1.7998 4 -4 4s-4 -1.7998 -4 -4zM34 78.2998v16.7002h-19c3.06445 -9.61719 10.1543 -16.7002 19 -16.7002z " id="p2th-00I11" transform="translate(99,25)" />  <path d="M72 73.7998v21.2002h-17.6895c2.44141 -11.6885 9.78906 -20 17.6895 -21.2002z " id="p2th-00N12" transform="translate(148,25)" />  <path d="M41.0811 95h19.9189v-14.54c-9.0293 0 -16.7812 6.36719 -19.9189 14.54z " id="p2th-00E13" transform="translate(235,25)" />  <path d="M93 78.5v9.7002c0 6.97656 2.76953 15.4199 9.37793 19.6152c-2.57715 3.12012 -7.84668 5.18457 -12.6777 5.18457c-7.97754 0 -14.4521 -7.55957 -14.4521 -16.874c0 -9.72949 7.95312 -17.626 17.752 -17.626z " id="p2th-00M14" transform="translate(309,25)" />  <path d="M60.8779 69.5l10.2373 27.3564c-6.15137 1.91211 -11.0098 3.14355 -15.8154 3.14355c-6.20215 0 -11.2998 -4.25586 -11.2998 -9.5c0 -8.81543 7.81641 -15.3613 16.8779 -21z " id="p2th-00A15" transform="translate(417,25)" /> </g></svg>